<?xml version="1.0" encoding="UTF-8" standalone="no"?>
<svg
   xmlns:dc="http://purl.org/dc/elements/1.1/"
   xmlns:cc="http://creativecommons.org/ns#"
   xmlns:rdf="http://www.w3.org/1999/02/22-rdf-syntax-ns#"
   xmlns:svg="http://www.w3.org/2000/svg"
   xmlns="http://www.w3.org/2000/svg"
   id="svg887"
   version="1.1"
   viewBox="0 0 16 16"
   height="16"
   width="16">
  <metadata
     id="metadata893">
    <rdf:RDF>
      <cc:Work
         rdf:about="">
        <dc:format>image/svg+xml</dc:format>
        <dc:type
           rdf:resource="http://purl.org/dc/dcmitype/StillImage" />
        <dc:title></dc:title>
      </cc:Work>
    </rdf:RDF>
  </metadata>
  <defs
     id="defs891" />
  <path
     id="path895"
     d="m 7.2099999,0.7999998 c 0.48,-0.505 0.79,-0.8 0.79,-0.8 0.109,0.363 0.234,0.708 0.371,1.038 0.812,1.946 2.0730001,3.35 3.1970001,4.6 C 12.878,7.0959998 14,8.3450001 14,10 c 0,3.313711 -2.686292,5.999997 -6.0000001,5.999997 -3.3137085,0 -6.0000001,-2.686286 -6.0000001,-5.999997 0,-3.3320002 3.58,-7.4830002 5.2100001,-9.2000002 z m 0.413,1.021 c -0.6421901,0.6949368 -1.2524856,1.4186825 -1.829,2.169 -0.726,0.95 -1.6193333,1.9246667 -2.1433333,2.9866667 C 3.1206666,8.0496668 2.9999999,9.1380001 2.9999999,10 c 0,0 2.5,1.5 5,0.5 C 10.5,9.5000001 13,10 13,10 13,8.7990001 12.770667,8.1430001 11.385667,6.5999998 l -0.596667,-0.332 c -1.0390001,-1.158 -2.2890001,-2.548 -3.1660001,-4.448 z"
     style="fill:#ffdf76;fill-rule:evenodd" />
  <g
     id="g885"
     fill-rule="evenodd"
     fill="#3776ab">
    <path
       style="fill-rule:evenodd"
       id="path881"
       d="M 7.21,0.8 C 7.69,0.295 8,0 8,0 c 0.109,0.363 0.234,0.708 0.371,1.038 0.812,1.946 2.073,3.35 3.197,4.6 C 12.878,7.096 14,8.345 14,10 14,13.313711 11.313708,15.999997 8,15.999997 4.6862916,15.999997 2,13.313711 2,10 2,6.668 5.58,2.517 7.21,0.8 Z M 7.623,1.821 C 6.9808099,2.5159368 6.3705144,3.2396825 5.794,3.99 5.068,4.94 4.358,5.998 3.834,7.06 1.5269218,10.481832 4.5178132,14.95 8.0333333,14.95 11.154366,14.95 15.760749,10.525312 10.819,6.3 L 10.789,6.268 C 9.75,5.11 8.5,3.72 7.623,1.82 Z" />
    <path
       id="path883"
       d="M4.553 7.776c.82-1.641 1.717-2.753 2.093-3.13l.708.708c-.29.29-1.128 1.311-1.907 2.87l-.894-.448z"
       fill-rule="evenodd" />
  </g>
</svg>
