<?xml version="1.0" encoding="UTF-8" standalone="no"?>
<svg
   xmlns:dc="http://purl.org/dc/elements/1.1/"
   xmlns:cc="http://creativecommons.org/ns#"
   xmlns:rdf="http://www.w3.org/1999/02/22-rdf-syntax-ns#"
   xmlns:svg="http://www.w3.org/2000/svg"
   xmlns="http://www.w3.org/2000/svg"
   xmlns:xlink="http://www.w3.org/1999/xlink"
   version="1.0"
   id="svg2169"
   height="109.8461"
   width="110.4211">
  <defs
     id="defs2171">
    <linearGradient
       id="linearGradient11301">
      <stop
         style="stop-color:#ffe052;stop-opacity:1"
         offset="0"
         id="stop11303" />
      <stop
         style="stop-color:#ffc331;stop-opacity:1"
         offset="1"
         id="stop11305" />
    </linearGradient>
    <linearGradient
       gradientTransform="translate(3.12e-5,2.0077661e-6)"
       xlink:href="#linearGradient11301"
       id="linearGradient11307"
       x1="89.136749"
       y1="111.92053"
       x2="147.77737"
       y2="168.1012"
       gradientUnits="userSpaceOnUse" />
    <linearGradient
       id="linearGradient9515">
      <stop
         style="stop-color:#387eb8;stop-opacity:1"
         offset="0"
         id="stop9517" />
      <stop
         style="stop-color:#366994;stop-opacity:1"
         offset="1"
         id="stop9519" />
    </linearGradient>
    <linearGradient
       gradientTransform="translate(3.12e-5,2.0077661e-6)"
       xlink:href="#linearGradient9515"
       id="linearGradient9521"
       x1="55.549179"
       y1="77.070274"
       x2="110.14919"
       y2="131.85291"
       gradientUnits="userSpaceOnUse" />
  </defs>
  <metadata
     id="metadata2174">
    <rdf:RDF>
      <cc:Work
         rdf:about="">
        <dc:format>image/svg+xml</dc:format>
        <dc:type
           rdf:resource="http://purl.org/dc/dcmitype/StillImage" />
        <dc:title></dc:title>
      </cc:Work>
    </rdf:RDF>
  </metadata>
  <g
     transform="translate(-473.36088,-251.72485)"
     id="layer1">
    <g
       transform="translate(428.42335,184.25612)"
       id="g1894">
      <path
         id="path8615"
         d="M 99.75,67.46875 C 71.718268,67.468752 73.46875,79.625 73.46875,79.625 L 73.5,92.21875 h 26.75 V 96 H 62.875 c 0,0 -17.9375,-2.034276 -17.9375,26.25 -2e-6,28.28427 15.65625,27.28125 15.65625,27.28125 h 9.34375 v -13.125 c 0,0 -0.503652,-15.65625 15.40625,-15.65625 15.9099,0 26.53125,0 26.53125,0 0,0 14.90625,0.24096 14.90625,-14.40625 0,-14.647206 0,-24.21875 0,-24.21875 0,-2e-6 2.26318,-14.65625 -27.03125,-14.65625 z M 85,75.9375 c 2.661429,-2e-6 4.8125,2.151071 4.8125,4.8125 2e-6,2.661429 -2.151071,4.8125 -4.8125,4.8125 -2.661429,2e-6 -4.8125,-2.151071 -4.8125,-4.8125 -2e-6,-2.661429 2.151071,-4.8125 4.8125,-4.8125 z"
         style="color:#000000;display:inline;overflow:visible;visibility:visible;opacity:1;fill:url(#linearGradient9521);fill-opacity:1;fill-rule:nonzero;stroke:none;stroke-width:1;stroke-linecap:butt;stroke-linejoin:miter;stroke-miterlimit:4;stroke-dasharray:none;stroke-dashoffset:0;stroke-opacity:1;marker:none;marker-start:none;marker-mid:none;marker-end:none" />
      <path
         style="color:#000000;display:inline;overflow:visible;visibility:visible;opacity:1;fill:url(#linearGradient11307);fill-opacity:1;fill-rule:nonzero;stroke:none;stroke-width:1;stroke-linecap:butt;stroke-linejoin:miter;stroke-miterlimit:4;stroke-dasharray:none;stroke-dashoffset:0;stroke-opacity:1;marker:none;marker-start:none;marker-mid:none;marker-end:none"
         d="m 100.5461,177.31485 c 28.03174,0 26.28125,-12.15625 26.28125,-12.15625 l -0.0312,-12.59375 h -26.75 v -3.78125 h 37.375 c 0,0 17.9375,2.03427 17.9375,-26.25001 10e-6,-28.284267 -15.65625,-27.281247 -15.65625,-27.281247 h -9.34375 v 13.124997 c 0,0 0.50366,15.65625 -15.40625,15.65625 -15.909902,0 -26.531252,0 -26.531252,0 0,0 -14.90625,-0.24096 -14.90625,14.40626 0,14.6472 0,24.21875 0,24.21875 0,0 -2.26318,14.65625 27.031252,14.65625 z m 14.75,-8.46875 c -2.66143,0 -4.8125,-2.15107 -4.8125,-4.8125 0,-2.66143 2.15107,-4.8125 4.8125,-4.8125 2.66143,0 4.8125,2.15107 4.8125,4.8125 1e-5,2.66143 -2.15107,4.8125 -4.8125,4.8125 z"
         id="path8620" />
    </g>
    <path
       d="m 593.53945,307.22287 c -55.1248,-9.36927 -66.14649,7.47016 -127.14285,-3.03034 v -10.44301 c 60.99636,10.5005 72.01805,-6.33893 127.14285,3.03034 z"
       style="fill:#ffffff;fill-opacity:1;stroke:none;stroke-width:0.65964043px;stroke-linecap:butt;stroke-linejoin:miter;stroke-opacity:1"
       id="path1585" />
    <path
       id="path1589"
       style="fill:#ffffff;fill-opacity:1;stroke:none;stroke-width:0.65964043px;stroke-linecap:butt;stroke-linejoin:miter;stroke-opacity:1"
       d="m 594.61088,318.97287 c -55.1248,-9.36927 -66.14649,7.47016 -127.14285,-3.03034 v -10.44301 c 60.99636,10.5005 72.01805,-6.33893 127.14285,3.03034 z" />
    <path
       d="m 594.61088,330.97287 c -55.1248,-9.36927 -66.14649,7.47016 -127.14285,-3.03034 v -10.44301 c 60.99636,10.5005 72.01805,-6.33893 127.14285,3.03034 z"
       style="fill:#ffffff;fill-opacity:1;stroke:none;stroke-width:0.65964043px;stroke-linecap:butt;stroke-linejoin:miter;stroke-opacity:1"
       id="path1591" />
    <path
       id="path1593"
       style="fill:#ffffff;fill-opacity:1;stroke:none;stroke-width:0.65964043px;stroke-linecap:butt;stroke-linejoin:miter;stroke-opacity:1"
       d="m 593.53945,295.22287 c -55.1248,-9.36927 -66.14649,7.47016 -127.14285,-3.03034 v -10.44301 c 60.99636,10.5005 72.01805,-6.33893 127.14285,3.03034 z" />
  </g>
</svg>
