<?xml version="1.0" encoding="UTF-8" standalone="no"?>
<svg
   xmlns:dc="http://purl.org/dc/elements/1.1/"
   xmlns:cc="http://creativecommons.org/ns#"
   xmlns:rdf="http://www.w3.org/1999/02/22-rdf-syntax-ns#"
   xmlns:svg="http://www.w3.org/2000/svg"
   xmlns="http://www.w3.org/2000/svg"
   xmlns:xlink="http://www.w3.org/1999/xlink"
   version="1.0"
   id="svg2169"
   height="109.8461"
   width="110.4211">
  <defs
     id="defs2171">
    <linearGradient
       id="linearGradient9515">
      <stop
         style="stop-color:#387eb8;stop-opacity:1"
         offset="0"
         id="stop9517" />
      <stop
         style="stop-color:#366994;stop-opacity:1"
         offset="1"
         id="stop9519" />
    </linearGradient>
    <linearGradient
       xlink:href="#linearGradient9515"
       id="linearGradient9521"
       x1="55.549179"
       y1="77.070274"
       x2="110.14919"
       y2="131.85291"
       gradientUnits="userSpaceOnUse" />
  </defs>
  <metadata
     id="metadata2174">
    <rdf:RDF>
      <cc:Work
         rdf:about="">
        <dc:format>image/svg+xml</dc:format>
        <dc:type
           rdf:resource="http://purl.org/dc/dcmitype/StillImage" />
        <dc:title></dc:title>
      </cc:Work>
    </rdf:RDF>
  </metadata>
  <g
     transform="translate(-473.36088,-251.72485)"
     id="layer1">
    <g
       transform="translate(428.42338,184.2561)"
       id="g1894">
      <path
         id="path8615"
         d="M 99.75,67.46875 C 71.718268,67.468752 73.46875,79.625 73.46875,79.625 L 73.5,92.21875 L 100.25,92.21875 L 100.25,96 L 62.875,96 C 62.875,96 44.9375,93.965724 44.9375,122.25 C 44.937498,150.53427 60.59375,149.53125 60.59375,149.53125 L 69.9375,149.53125 L 69.9375,136.40625 C 69.9375,136.40625 69.433848,120.75 85.34375,120.75 C 101.25365,120.75 111.875,120.75 111.875,120.75 C 111.875,120.75 126.78125,120.99096 126.78125,106.34375 C 126.78125,91.696544 126.78125,82.125 126.78125,82.125 C 126.78125,82.124998 129.04443,67.46875 99.75,67.46875 z M 85,75.9375 C 87.661429,75.937498 89.8125,78.088571 89.8125,80.75 C 89.812502,83.411429 87.661429,85.5625 85,85.5625 C 82.338571,85.562502 80.1875,83.411429 80.1875,80.75 C 80.187498,78.088571 82.338571,75.9375 85,75.9375 z "
         style="opacity:1;color:#000000;fill:url(#linearGradient9521);fill-opacity:1;fill-rule:nonzero;stroke:none;stroke-width:1;stroke-linecap:butt;stroke-linejoin:miter;marker:none;marker-start:none;marker-mid:none;marker-end:none;stroke-miterlimit:4;stroke-dasharray:none;stroke-dashoffset:0;stroke-opacity:1;visibility:visible;display:inline;overflow:visible" />
    </g>
  </g>
</svg>
